<mxfile host="app.diagrams.net" agent="Mozilla/5.0 (Windows NT 10.0; Win64; x64) AppleWebKit/537.36 (KHTML, like Gecko) Chrome/132.0.0.0 Safari/537.36 OPR/117.0.0.0" version="26.1.3">
  <diagram id="C5RBs43oDa-KdzZeNtuy" name="Page-1">
    <mxGraphModel grid="1" page="1" gridSize="10" guides="1" tooltips="1" connect="1" arrows="1" fold="1" pageScale="1" pageWidth="827" pageHeight="1169" math="0" shadow="0">
      <root>
        <mxCell id="WIyWlLk6GJQsqaUBKTNV-0" />
        <mxCell id="WIyWlLk6GJQsqaUBKTNV-1" parent="WIyWlLk6GJQsqaUBKTNV-0" />
        <mxCell id="2eSCGHU8sKg38de3WhYU-158" value="" style="rounded=0;whiteSpace=wrap;html=1;fillColor=#e1d5e7;strokeColor=#9673a6;" vertex="1" parent="WIyWlLk6GJQsqaUBKTNV-1">
          <mxGeometry x="600" y="320" width="410" height="230" as="geometry" />
        </mxCell>
        <mxCell id="2eSCGHU8sKg38de3WhYU-156" value="" style="rounded=0;whiteSpace=wrap;html=1;fillColor=#e1d5e7;strokeColor=#9673a6;" vertex="1" parent="WIyWlLk6GJQsqaUBKTNV-1">
          <mxGeometry x="170" y="600" width="1030" height="250" as="geometry" />
        </mxCell>
        <mxCell id="2eSCGHU8sKg38de3WhYU-123" style="edgeStyle=orthogonalEdgeStyle;rounded=0;orthogonalLoop=1;jettySize=auto;html=1;entryX=0.347;entryY=0.023;entryDx=0;entryDy=0;entryPerimeter=0;" edge="1" parent="WIyWlLk6GJQsqaUBKTNV-1" source="2eSCGHU8sKg38de3WhYU-14" target="2eSCGHU8sKg38de3WhYU-175">
          <mxGeometry relative="1" as="geometry">
            <mxPoint x="320" y="710" as="targetPoint" />
          </mxGeometry>
        </mxCell>
        <mxCell id="2eSCGHU8sKg38de3WhYU-174" style="edgeStyle=orthogonalEdgeStyle;rounded=0;orthogonalLoop=1;jettySize=auto;html=1;entryX=0.569;entryY=1.033;entryDx=0;entryDy=0;entryPerimeter=0;" edge="1" parent="WIyWlLk6GJQsqaUBKTNV-1" source="2eSCGHU8sKg38de3WhYU-14" target="2eSCGHU8sKg38de3WhYU-142">
          <mxGeometry relative="1" as="geometry">
            <mxPoint x="150" y="665" as="targetPoint" />
            <Array as="points">
              <mxPoint x="243" y="665" />
              <mxPoint x="243" y="600" />
            </Array>
          </mxGeometry>
        </mxCell>
        <mxCell id="2eSCGHU8sKg38de3WhYU-14" value="Address Unit" style="rounded=0;whiteSpace=wrap;html=1;" vertex="1" parent="WIyWlLk6GJQsqaUBKTNV-1">
          <mxGeometry x="260" y="650" width="120" height="30" as="geometry" />
        </mxCell>
        <mxCell id="2eSCGHU8sKg38de3WhYU-144" style="edgeStyle=orthogonalEdgeStyle;rounded=0;orthogonalLoop=1;jettySize=auto;html=1;exitX=1;exitY=0.5;exitDx=0;exitDy=0;entryX=0.574;entryY=0.997;entryDx=0;entryDy=0;entryPerimeter=0;" edge="1" parent="WIyWlLk6GJQsqaUBKTNV-1" source="2eSCGHU8sKg38de3WhYU-151" target="2eSCGHU8sKg38de3WhYU-176">
          <mxGeometry relative="1" as="geometry">
            <mxPoint x="380" y="900" as="targetPoint" />
            <Array as="points">
              <mxPoint x="310" y="955" />
              <mxPoint x="310" y="950" />
              <mxPoint x="360" y="950" />
            </Array>
          </mxGeometry>
        </mxCell>
        <mxCell id="2eSCGHU8sKg38de3WhYU-24" value="Registers" style="shape=table;startSize=30;container=1;collapsible=0;childLayout=tableLayout;fixedRows=1;rowLines=0;fontStyle=0;strokeColor=default;fontSize=16;movable=1;resizable=1;rotatable=1;deletable=1;editable=1;locked=0;connectable=1;" vertex="1" parent="WIyWlLk6GJQsqaUBKTNV-1">
          <mxGeometry x="680" y="460" width="180" height="60" as="geometry" />
        </mxCell>
        <mxCell id="2eSCGHU8sKg38de3WhYU-25" value="" style="shape=tableRow;horizontal=0;startSize=0;swimlaneHead=0;swimlaneBody=0;top=0;left=0;bottom=0;right=0;collapsible=0;dropTarget=0;fillColor=none;points=[[0,0.5],[1,0.5]];portConstraint=eastwest;strokeColor=inherit;fontSize=16;" vertex="1" parent="2eSCGHU8sKg38de3WhYU-24">
          <mxGeometry y="30" width="180" height="30" as="geometry" />
        </mxCell>
        <mxCell id="2eSCGHU8sKg38de3WhYU-26" value="Reg Idx" style="shape=partialRectangle;html=1;whiteSpace=wrap;connectable=0;fillColor=none;top=0;left=0;bottom=0;right=0;overflow=hidden;pointerEvents=1;strokeColor=inherit;fontSize=16;" vertex="1" parent="2eSCGHU8sKg38de3WhYU-25">
          <mxGeometry width="60" height="30" as="geometry">
            <mxRectangle width="60" height="30" as="alternateBounds" />
          </mxGeometry>
        </mxCell>
        <mxCell id="2eSCGHU8sKg38de3WhYU-27" value="Reg Values" style="shape=partialRectangle;html=1;whiteSpace=wrap;connectable=0;fillColor=none;top=0;left=0;bottom=0;right=0;align=left;spacingLeft=6;overflow=hidden;strokeColor=inherit;fontSize=16;" vertex="1" parent="2eSCGHU8sKg38de3WhYU-25">
          <mxGeometry x="60" width="120" height="30" as="geometry">
            <mxRectangle width="120" height="30" as="alternateBounds" />
          </mxGeometry>
        </mxCell>
        <mxCell id="2eSCGHU8sKg38de3WhYU-80" value="Reorder Buffer" style="shape=table;startSize=30;container=1;collapsible=0;childLayout=tableLayout;fixedRows=1;rowLines=0;fontStyle=0;strokeColor=default;fontSize=16;movable=1;resizable=1;rotatable=1;deletable=1;editable=1;locked=0;connectable=1;" vertex="1" parent="WIyWlLk6GJQsqaUBKTNV-1">
          <mxGeometry x="480" y="350" width="360" height="60" as="geometry" />
        </mxCell>
        <mxCell id="2eSCGHU8sKg38de3WhYU-81" value="" style="shape=tableRow;horizontal=0;startSize=0;swimlaneHead=0;swimlaneBody=0;top=0;left=0;bottom=0;right=0;collapsible=0;dropTarget=0;fillColor=none;points=[[0,0.5],[1,0.5]];portConstraint=eastwest;strokeColor=inherit;fontSize=16;" vertex="1" parent="2eSCGHU8sKg38de3WhYU-80">
          <mxGeometry y="30" width="360" height="30" as="geometry" />
        </mxCell>
        <mxCell id="2eSCGHU8sKg38de3WhYU-86" value="Valid" style="shape=partialRectangle;html=1;whiteSpace=wrap;connectable=0;fillColor=none;top=0;left=0;bottom=0;right=0;overflow=hidden;pointerEvents=1;strokeColor=inherit;fontSize=16;" vertex="1" parent="2eSCGHU8sKg38de3WhYU-81">
          <mxGeometry width="40" height="30" as="geometry">
            <mxRectangle width="40" height="30" as="alternateBounds" />
          </mxGeometry>
        </mxCell>
        <mxCell id="2eSCGHU8sKg38de3WhYU-82" value="Instr Type" style="shape=partialRectangle;html=1;whiteSpace=wrap;connectable=0;fillColor=none;top=0;left=0;bottom=0;right=0;overflow=hidden;pointerEvents=1;strokeColor=inherit;fontSize=16;" vertex="1" parent="2eSCGHU8sKg38de3WhYU-81">
          <mxGeometry x="40" width="120" height="30" as="geometry">
            <mxRectangle width="120" height="30" as="alternateBounds" />
          </mxGeometry>
        </mxCell>
        <mxCell id="2eSCGHU8sKg38de3WhYU-83" value="RD Idx" style="shape=partialRectangle;html=1;whiteSpace=wrap;connectable=0;fillColor=none;top=0;left=0;bottom=0;right=0;align=left;spacingLeft=6;overflow=hidden;strokeColor=inherit;fontSize=16;" vertex="1" parent="2eSCGHU8sKg38de3WhYU-81">
          <mxGeometry x="160" width="100" height="30" as="geometry">
            <mxRectangle width="100" height="30" as="alternateBounds" />
          </mxGeometry>
        </mxCell>
        <mxCell id="2eSCGHU8sKg38de3WhYU-85" value="RD rtn Val" style="shape=partialRectangle;html=1;whiteSpace=wrap;connectable=0;fillColor=none;top=0;left=0;bottom=0;right=0;align=left;spacingLeft=6;overflow=hidden;strokeColor=inherit;fontSize=16;" vertex="1" parent="2eSCGHU8sKg38de3WhYU-81">
          <mxGeometry x="260" width="100" height="30" as="geometry">
            <mxRectangle width="100" height="30" as="alternateBounds" />
          </mxGeometry>
        </mxCell>
        <mxCell id="2eSCGHU8sKg38de3WhYU-121" style="edgeStyle=orthogonalEdgeStyle;rounded=0;orthogonalLoop=1;jettySize=auto;html=1;" edge="1" parent="WIyWlLk6GJQsqaUBKTNV-1" source="2eSCGHU8sKg38de3WhYU-87" target="2eSCGHU8sKg38de3WhYU-119">
          <mxGeometry relative="1" as="geometry" />
        </mxCell>
        <mxCell id="2eSCGHU8sKg38de3WhYU-87" value="Reservation Station" style="shape=table;startSize=30;container=1;collapsible=0;childLayout=tableLayout;fixedRows=1;rowLines=0;fontStyle=0;strokeColor=default;fontSize=16;movable=1;resizable=1;rotatable=1;deletable=1;editable=1;locked=0;connectable=1;" vertex="1" parent="WIyWlLk6GJQsqaUBKTNV-1">
          <mxGeometry x="470" y="670" width="361" height="60" as="geometry" />
        </mxCell>
        <mxCell id="2eSCGHU8sKg38de3WhYU-88" value="" style="shape=tableRow;horizontal=0;startSize=0;swimlaneHead=0;swimlaneBody=0;top=0;left=0;bottom=0;right=0;collapsible=0;dropTarget=0;fillColor=none;points=[[0,0.5],[1,0.5]];portConstraint=eastwest;strokeColor=inherit;fontSize=16;" vertex="1" parent="2eSCGHU8sKg38de3WhYU-87">
          <mxGeometry y="30" width="361" height="30" as="geometry" />
        </mxCell>
        <mxCell id="2eSCGHU8sKg38de3WhYU-89" value="Valid" style="shape=partialRectangle;html=1;whiteSpace=wrap;connectable=0;fillColor=none;top=0;left=0;bottom=0;right=0;overflow=hidden;pointerEvents=1;strokeColor=inherit;fontSize=16;" vertex="1" parent="2eSCGHU8sKg38de3WhYU-88">
          <mxGeometry width="40" height="30" as="geometry">
            <mxRectangle width="40" height="30" as="alternateBounds" />
          </mxGeometry>
        </mxCell>
        <mxCell id="2eSCGHU8sKg38de3WhYU-90" value="Instr Type" style="shape=partialRectangle;html=1;whiteSpace=wrap;connectable=0;fillColor=none;top=0;left=0;bottom=0;right=0;overflow=hidden;pointerEvents=1;strokeColor=inherit;fontSize=16;" vertex="1" parent="2eSCGHU8sKg38de3WhYU-88">
          <mxGeometry x="40" width="86" height="30" as="geometry">
            <mxRectangle width="86" height="30" as="alternateBounds" />
          </mxGeometry>
        </mxCell>
        <mxCell id="2eSCGHU8sKg38de3WhYU-91" value="Rs1 Val" style="shape=partialRectangle;html=1;whiteSpace=wrap;connectable=0;fillColor=none;top=0;left=0;bottom=0;right=0;align=left;spacingLeft=6;overflow=hidden;strokeColor=inherit;fontSize=16;" vertex="1" parent="2eSCGHU8sKg38de3WhYU-88">
          <mxGeometry x="126" width="79" height="30" as="geometry">
            <mxRectangle width="79" height="30" as="alternateBounds" />
          </mxGeometry>
        </mxCell>
        <mxCell id="2eSCGHU8sKg38de3WhYU-92" value="Rs2/Offset" style="shape=partialRectangle;html=1;whiteSpace=wrap;connectable=0;fillColor=none;top=0;left=0;bottom=0;right=0;align=left;spacingLeft=6;overflow=hidden;strokeColor=inherit;fontSize=16;" vertex="1" parent="2eSCGHU8sKg38de3WhYU-88">
          <mxGeometry x="205" width="85" height="30" as="geometry">
            <mxRectangle width="85" height="30" as="alternateBounds" />
          </mxGeometry>
        </mxCell>
        <mxCell id="2eSCGHU8sKg38de3WhYU-99" value="ROB Idx" style="shape=partialRectangle;html=1;whiteSpace=wrap;connectable=0;fillColor=none;top=0;left=0;bottom=0;right=0;align=left;spacingLeft=6;overflow=hidden;strokeColor=inherit;fontSize=16;" vertex="1" parent="2eSCGHU8sKg38de3WhYU-88">
          <mxGeometry x="290" width="71" height="30" as="geometry">
            <mxRectangle width="71" height="30" as="alternateBounds" />
          </mxGeometry>
        </mxCell>
        <mxCell id="2eSCGHU8sKg38de3WhYU-122" style="edgeStyle=orthogonalEdgeStyle;rounded=0;orthogonalLoop=1;jettySize=auto;html=1;" edge="1" parent="WIyWlLk6GJQsqaUBKTNV-1" source="2eSCGHU8sKg38de3WhYU-101" target="2eSCGHU8sKg38de3WhYU-120">
          <mxGeometry relative="1" as="geometry" />
        </mxCell>
        <mxCell id="2eSCGHU8sKg38de3WhYU-101" value="Reservation Station" style="shape=table;startSize=30;container=1;collapsible=0;childLayout=tableLayout;fixedRows=1;rowLines=0;fontStyle=0;strokeColor=default;fontSize=16;movable=1;resizable=1;rotatable=1;deletable=1;editable=1;locked=0;connectable=1;" vertex="1" parent="WIyWlLk6GJQsqaUBKTNV-1">
          <mxGeometry x="839" y="670" width="361" height="60" as="geometry" />
        </mxCell>
        <mxCell id="2eSCGHU8sKg38de3WhYU-102" value="" style="shape=tableRow;horizontal=0;startSize=0;swimlaneHead=0;swimlaneBody=0;top=0;left=0;bottom=0;right=0;collapsible=0;dropTarget=0;fillColor=none;points=[[0,0.5],[1,0.5]];portConstraint=eastwest;strokeColor=inherit;fontSize=16;" vertex="1" parent="2eSCGHU8sKg38de3WhYU-101">
          <mxGeometry y="30" width="361" height="30" as="geometry" />
        </mxCell>
        <mxCell id="2eSCGHU8sKg38de3WhYU-103" value="Valid" style="shape=partialRectangle;html=1;whiteSpace=wrap;connectable=0;fillColor=none;top=0;left=0;bottom=0;right=0;overflow=hidden;pointerEvents=1;strokeColor=inherit;fontSize=16;" vertex="1" parent="2eSCGHU8sKg38de3WhYU-102">
          <mxGeometry width="40" height="30" as="geometry">
            <mxRectangle width="40" height="30" as="alternateBounds" />
          </mxGeometry>
        </mxCell>
        <mxCell id="2eSCGHU8sKg38de3WhYU-104" value="Instr Type" style="shape=partialRectangle;html=1;whiteSpace=wrap;connectable=0;fillColor=none;top=0;left=0;bottom=0;right=0;overflow=hidden;pointerEvents=1;strokeColor=inherit;fontSize=16;" vertex="1" parent="2eSCGHU8sKg38de3WhYU-102">
          <mxGeometry x="40" width="86" height="30" as="geometry">
            <mxRectangle width="86" height="30" as="alternateBounds" />
          </mxGeometry>
        </mxCell>
        <mxCell id="2eSCGHU8sKg38de3WhYU-105" value="Rs1 Val" style="shape=partialRectangle;html=1;whiteSpace=wrap;connectable=0;fillColor=none;top=0;left=0;bottom=0;right=0;align=left;spacingLeft=6;overflow=hidden;strokeColor=inherit;fontSize=16;" vertex="1" parent="2eSCGHU8sKg38de3WhYU-102">
          <mxGeometry x="126" width="79" height="30" as="geometry">
            <mxRectangle width="79" height="30" as="alternateBounds" />
          </mxGeometry>
        </mxCell>
        <mxCell id="2eSCGHU8sKg38de3WhYU-106" value="Offset" style="shape=partialRectangle;html=1;whiteSpace=wrap;connectable=0;fillColor=none;top=0;left=0;bottom=0;right=0;align=left;spacingLeft=6;overflow=hidden;strokeColor=inherit;fontSize=16;" vertex="1" parent="2eSCGHU8sKg38de3WhYU-102">
          <mxGeometry x="205" width="78" height="30" as="geometry">
            <mxRectangle width="78" height="30" as="alternateBounds" />
          </mxGeometry>
        </mxCell>
        <mxCell id="2eSCGHU8sKg38de3WhYU-107" value="ROB Idx" style="shape=partialRectangle;html=1;whiteSpace=wrap;connectable=0;fillColor=none;top=0;left=0;bottom=0;right=0;align=left;spacingLeft=6;overflow=hidden;strokeColor=inherit;fontSize=16;" vertex="1" parent="2eSCGHU8sKg38de3WhYU-102">
          <mxGeometry x="283" width="78" height="30" as="geometry">
            <mxRectangle width="78" height="30" as="alternateBounds" />
          </mxGeometry>
        </mxCell>
        <mxCell id="2eSCGHU8sKg38de3WhYU-132" style="edgeStyle=orthogonalEdgeStyle;rounded=0;orthogonalLoop=1;jettySize=auto;html=1;strokeWidth=3;entryX=0.897;entryY=-0.014;entryDx=0;entryDy=0;entryPerimeter=0;" edge="1" parent="WIyWlLk6GJQsqaUBKTNV-1" source="2eSCGHU8sKg38de3WhYU-119" target="2eSCGHU8sKg38de3WhYU-80">
          <mxGeometry relative="1" as="geometry">
            <mxPoint x="627.5" y="890" as="targetPoint" />
            <Array as="points">
              <mxPoint x="628" y="880" />
              <mxPoint x="1220" y="880" />
              <mxPoint x="1220" y="320" />
              <mxPoint x="803" y="320" />
            </Array>
          </mxGeometry>
        </mxCell>
        <mxCell id="2eSCGHU8sKg38de3WhYU-119" value="INT ALU" style="rounded=0;whiteSpace=wrap;html=1;" vertex="1" parent="WIyWlLk6GJQsqaUBKTNV-1">
          <mxGeometry x="567.5" y="790" width="120" height="30" as="geometry" />
        </mxCell>
        <mxCell id="2eSCGHU8sKg38de3WhYU-134" style="edgeStyle=orthogonalEdgeStyle;rounded=0;orthogonalLoop=1;jettySize=auto;html=1;endArrow=none;startFill=0;strokeWidth=2;endFill=1;" edge="1" parent="WIyWlLk6GJQsqaUBKTNV-1" source="2eSCGHU8sKg38de3WhYU-120">
          <mxGeometry relative="1" as="geometry">
            <mxPoint x="1010.5" y="880" as="targetPoint" />
          </mxGeometry>
        </mxCell>
        <mxCell id="2eSCGHU8sKg38de3WhYU-120" value="BR" style="rounded=0;whiteSpace=wrap;html=1;" vertex="1" parent="WIyWlLk6GJQsqaUBKTNV-1">
          <mxGeometry x="950.5" y="800" width="120" height="30" as="geometry" />
        </mxCell>
        <mxCell id="2eSCGHU8sKg38de3WhYU-124" style="edgeStyle=orthogonalEdgeStyle;rounded=0;orthogonalLoop=1;jettySize=auto;html=1;entryX=0.5;entryY=0;entryDx=0;entryDy=0;exitX=0.3;exitY=1.028;exitDx=0;exitDy=0;exitPerimeter=0;" edge="1" parent="WIyWlLk6GJQsqaUBKTNV-1" source="2eSCGHU8sKg38de3WhYU-176" target="2eSCGHU8sKg38de3WhYU-151">
          <mxGeometry relative="1" as="geometry">
            <mxPoint x="310.0434782608695" y="770" as="sourcePoint" />
            <mxPoint x="310" y="810" as="targetPoint" />
            <Array as="points">
              <mxPoint x="293" y="900" />
              <mxPoint x="285" y="900" />
            </Array>
          </mxGeometry>
        </mxCell>
        <mxCell id="2eSCGHU8sKg38de3WhYU-125" style="edgeStyle=orthogonalEdgeStyle;rounded=0;orthogonalLoop=1;jettySize=auto;html=1;entryX=0.666;entryY=-0.007;entryDx=0;entryDy=0;entryPerimeter=0;" edge="1" parent="WIyWlLk6GJQsqaUBKTNV-1" source="2eSCGHU8sKg38de3WhYU-25" target="2eSCGHU8sKg38de3WhYU-87">
          <mxGeometry relative="1" as="geometry" />
        </mxCell>
        <mxCell id="2eSCGHU8sKg38de3WhYU-126" style="edgeStyle=orthogonalEdgeStyle;rounded=0;orthogonalLoop=1;jettySize=auto;html=1;entryX=0.323;entryY=0.031;entryDx=0;entryDy=0;entryPerimeter=0;" edge="1" parent="WIyWlLk6GJQsqaUBKTNV-1" source="2eSCGHU8sKg38de3WhYU-25" target="2eSCGHU8sKg38de3WhYU-101">
          <mxGeometry relative="1" as="geometry" />
        </mxCell>
        <mxCell id="2eSCGHU8sKg38de3WhYU-129" style="edgeStyle=orthogonalEdgeStyle;rounded=0;orthogonalLoop=1;jettySize=auto;html=1;entryX=0.5;entryY=0;entryDx=0;entryDy=0;" edge="1" parent="WIyWlLk6GJQsqaUBKTNV-1" source="2eSCGHU8sKg38de3WhYU-127" target="2eSCGHU8sKg38de3WhYU-14">
          <mxGeometry relative="1" as="geometry" />
        </mxCell>
        <mxCell id="2eSCGHU8sKg38de3WhYU-130" style="edgeStyle=orthogonalEdgeStyle;rounded=0;orthogonalLoop=1;jettySize=auto;html=1;" edge="1" parent="WIyWlLk6GJQsqaUBKTNV-1" source="2eSCGHU8sKg38de3WhYU-127" target="2eSCGHU8sKg38de3WhYU-87">
          <mxGeometry relative="1" as="geometry">
            <Array as="points">
              <mxPoint x="498" y="630" />
              <mxPoint x="630" y="630" />
            </Array>
          </mxGeometry>
        </mxCell>
        <mxCell id="2eSCGHU8sKg38de3WhYU-131" style="edgeStyle=orthogonalEdgeStyle;rounded=0;orthogonalLoop=1;jettySize=auto;html=1;" edge="1" parent="WIyWlLk6GJQsqaUBKTNV-1" source="2eSCGHU8sKg38de3WhYU-127" target="2eSCGHU8sKg38de3WhYU-101">
          <mxGeometry relative="1" as="geometry" />
        </mxCell>
        <mxCell id="2eSCGHU8sKg38de3WhYU-127" value="Decode/ Dispatch Logic" style="rounded=0;whiteSpace=wrap;html=1;fillColor=#e1d5e7;strokeColor=#9673a6;" vertex="1" parent="WIyWlLk6GJQsqaUBKTNV-1">
          <mxGeometry x="437.5" y="560" width="120" height="30" as="geometry" />
        </mxCell>
        <mxCell id="2eSCGHU8sKg38de3WhYU-128" style="edgeStyle=orthogonalEdgeStyle;rounded=0;orthogonalLoop=1;jettySize=auto;html=1;entryX=0.75;entryY=0;entryDx=0;entryDy=0;" edge="1" parent="WIyWlLk6GJQsqaUBKTNV-1">
          <mxGeometry relative="1" as="geometry">
            <mxPoint x="470" y="520" as="sourcePoint" />
            <mxPoint x="497.5" y="560" as="targetPoint" />
            <Array as="points">
              <mxPoint x="500" y="520" />
              <mxPoint x="500" y="550" />
              <mxPoint x="498" y="550" />
            </Array>
          </mxGeometry>
        </mxCell>
        <mxCell id="2eSCGHU8sKg38de3WhYU-135" style="edgeStyle=orthogonalEdgeStyle;rounded=0;orthogonalLoop=1;jettySize=auto;html=1;exitX=0;exitY=0;exitDx=0;exitDy=0;entryX=0.37;entryY=0.006;entryDx=0;entryDy=0;entryPerimeter=0;" edge="1" parent="WIyWlLk6GJQsqaUBKTNV-1" source="2eSCGHU8sKg38de3WhYU-127" target="2eSCGHU8sKg38de3WhYU-80">
          <mxGeometry relative="1" as="geometry">
            <Array as="points">
              <mxPoint x="437" y="540" />
              <mxPoint x="370" y="540" />
              <mxPoint x="370" y="310" />
              <mxPoint x="613" y="310" />
            </Array>
          </mxGeometry>
        </mxCell>
        <mxCell id="2eSCGHU8sKg38de3WhYU-198" style="edgeStyle=orthogonalEdgeStyle;rounded=0;orthogonalLoop=1;jettySize=auto;html=1;entryX=0.5;entryY=1;entryDx=0;entryDy=0;" edge="1" parent="WIyWlLk6GJQsqaUBKTNV-1" source="2eSCGHU8sKg38de3WhYU-136" target="2eSCGHU8sKg38de3WhYU-194">
          <mxGeometry relative="1" as="geometry" />
        </mxCell>
        <mxCell id="2eSCGHU8sKg38de3WhYU-136" value="Fetch Logic" style="rounded=0;whiteSpace=wrap;html=1;fillColor=#e1d5e7;strokeColor=#9673a6;" vertex="1" parent="WIyWlLk6GJQsqaUBKTNV-1">
          <mxGeometry x="380" y="420" width="110" height="30" as="geometry" />
        </mxCell>
        <mxCell id="2eSCGHU8sKg38de3WhYU-138" style="edgeStyle=orthogonalEdgeStyle;rounded=0;orthogonalLoop=1;jettySize=auto;html=1;entryX=0.589;entryY=0;entryDx=0;entryDy=0;entryPerimeter=0;" edge="1" parent="WIyWlLk6GJQsqaUBKTNV-1" source="2eSCGHU8sKg38de3WhYU-136">
          <mxGeometry relative="1" as="geometry">
            <mxPoint x="509.96000000000004" y="460" as="targetPoint" />
            <Array as="points">
              <mxPoint x="510" y="430" />
            </Array>
          </mxGeometry>
        </mxCell>
        <mxCell id="2eSCGHU8sKg38de3WhYU-140" style="edgeStyle=orthogonalEdgeStyle;rounded=0;orthogonalLoop=1;jettySize=auto;html=1;entryX=0.198;entryY=-0.008;entryDx=0;entryDy=0;entryPerimeter=0;exitX=0.852;exitY=1;exitDx=0;exitDy=0;exitPerimeter=0;" edge="1" parent="WIyWlLk6GJQsqaUBKTNV-1" source="2eSCGHU8sKg38de3WhYU-81">
          <mxGeometry relative="1" as="geometry">
            <mxPoint x="730" y="410" as="sourcePoint" />
            <mxPoint x="786" y="460" as="targetPoint" />
            <Array as="points">
              <mxPoint x="787" y="435" />
              <mxPoint x="786" y="435" />
            </Array>
          </mxGeometry>
        </mxCell>
        <mxCell id="2eSCGHU8sKg38de3WhYU-141" style="edgeStyle=orthogonalEdgeStyle;rounded=0;orthogonalLoop=1;jettySize=auto;html=1;entryX=0.5;entryY=0;entryDx=0;entryDy=0;" edge="1" parent="WIyWlLk6GJQsqaUBKTNV-1" source="2eSCGHU8sKg38de3WhYU-81" target="2eSCGHU8sKg38de3WhYU-142">
          <mxGeometry relative="1" as="geometry" />
        </mxCell>
        <mxCell id="2eSCGHU8sKg38de3WhYU-143" style="edgeStyle=orthogonalEdgeStyle;rounded=0;orthogonalLoop=1;jettySize=auto;html=1;exitX=0.5;exitY=1;exitDx=0;exitDy=0;entryX=0;entryY=0.5;entryDx=0;entryDy=0;" edge="1" parent="WIyWlLk6GJQsqaUBKTNV-1" source="2eSCGHU8sKg38de3WhYU-142" target="2eSCGHU8sKg38de3WhYU-151">
          <mxGeometry relative="1" as="geometry">
            <Array as="points">
              <mxPoint x="200" y="550" />
              <mxPoint x="200" y="955" />
            </Array>
          </mxGeometry>
        </mxCell>
        <mxCell id="2eSCGHU8sKg38de3WhYU-142" value="Store Logic" style="rounded=0;whiteSpace=wrap;html=1;" vertex="1" parent="WIyWlLk6GJQsqaUBKTNV-1">
          <mxGeometry x="180" y="520" width="110" height="30" as="geometry" />
        </mxCell>
        <mxCell id="2eSCGHU8sKg38de3WhYU-146" style="edgeStyle=orthogonalEdgeStyle;rounded=0;orthogonalLoop=1;jettySize=auto;html=1;strokeWidth=3;endArrow=none;startFill=0;" edge="1" parent="WIyWlLk6GJQsqaUBKTNV-1" source="2eSCGHU8sKg38de3WhYU-145">
          <mxGeometry relative="1" as="geometry">
            <mxPoint x="640" y="880" as="targetPoint" />
          </mxGeometry>
        </mxCell>
        <mxCell id="2eSCGHU8sKg38de3WhYU-145" value="Load Logic" style="rounded=0;whiteSpace=wrap;html=1;" vertex="1" parent="WIyWlLk6GJQsqaUBKTNV-1">
          <mxGeometry x="414" y="880" width="120" height="30" as="geometry" />
        </mxCell>
        <mxCell id="2eSCGHU8sKg38de3WhYU-149" style="edgeStyle=orthogonalEdgeStyle;rounded=0;orthogonalLoop=1;jettySize=auto;html=1;" edge="1" parent="WIyWlLk6GJQsqaUBKTNV-1" source="2eSCGHU8sKg38de3WhYU-148" target="2eSCGHU8sKg38de3WhYU-136">
          <mxGeometry relative="1" as="geometry" />
        </mxCell>
        <mxCell id="2eSCGHU8sKg38de3WhYU-148" value="Instr Cache/DRAM" style="rounded=0;whiteSpace=wrap;html=1;" vertex="1" parent="WIyWlLk6GJQsqaUBKTNV-1">
          <mxGeometry x="220" y="270" width="110" height="30" as="geometry" />
        </mxCell>
        <mxCell id="2eSCGHU8sKg38de3WhYU-151" value="Memory Stuff&lt;div&gt;DRAM &amp;amp;CACHE&lt;/div&gt;" style="rounded=0;whiteSpace=wrap;html=1;" vertex="1" parent="WIyWlLk6GJQsqaUBKTNV-1">
          <mxGeometry x="230" y="940" width="110" height="30" as="geometry" />
        </mxCell>
        <mxCell id="2eSCGHU8sKg38de3WhYU-157" value="Execute Logic" style="text;html=1;align=center;verticalAlign=middle;whiteSpace=wrap;rounded=0;" vertex="1" parent="WIyWlLk6GJQsqaUBKTNV-1">
          <mxGeometry x="767" y="610" width="60" height="30" as="geometry" />
        </mxCell>
        <mxCell id="2eSCGHU8sKg38de3WhYU-159" value="Writeback&lt;br&gt;Logic" style="text;html=1;align=center;verticalAlign=middle;whiteSpace=wrap;rounded=0;" vertex="1" parent="WIyWlLk6GJQsqaUBKTNV-1">
          <mxGeometry x="930" y="365" width="60" height="30" as="geometry" />
        </mxCell>
        <mxCell id="2eSCGHU8sKg38de3WhYU-160" style="edgeStyle=orthogonalEdgeStyle;rounded=0;orthogonalLoop=1;jettySize=auto;html=1;entryX=0.198;entryY=-0.008;entryDx=0;entryDy=0;entryPerimeter=0;exitX=0.852;exitY=1;exitDx=0;exitDy=0;exitPerimeter=0;" edge="1" parent="WIyWlLk6GJQsqaUBKTNV-1">
          <mxGeometry relative="1" as="geometry">
            <mxPoint x="711" y="410" as="sourcePoint" />
            <mxPoint x="710" y="460" as="targetPoint" />
            <Array as="points">
              <mxPoint x="711" y="435" />
              <mxPoint x="710" y="435" />
            </Array>
          </mxGeometry>
        </mxCell>
        <mxCell id="2eSCGHU8sKg38de3WhYU-161" value="Reg idx" style="text;html=1;align=center;verticalAlign=middle;whiteSpace=wrap;rounded=0;" vertex="1" parent="WIyWlLk6GJQsqaUBKTNV-1">
          <mxGeometry x="655" y="420" width="60" height="30" as="geometry" />
        </mxCell>
        <mxCell id="2eSCGHU8sKg38de3WhYU-162" value="Updated Reg Val" style="text;html=1;align=center;verticalAlign=middle;whiteSpace=wrap;rounded=0;" vertex="1" parent="WIyWlLk6GJQsqaUBKTNV-1">
          <mxGeometry x="790" y="420" width="60" height="30" as="geometry" />
        </mxCell>
        <mxCell id="2eSCGHU8sKg38de3WhYU-163" value="Common Data Bus" style="text;html=1;align=center;verticalAlign=middle;whiteSpace=wrap;rounded=0;" vertex="1" parent="WIyWlLk6GJQsqaUBKTNV-1">
          <mxGeometry x="1020" y="290" width="150" height="30" as="geometry" />
        </mxCell>
        <mxCell id="2eSCGHU8sKg38de3WhYU-164" value="Instruction Queue" style="shape=table;startSize=30;container=1;collapsible=0;childLayout=tableLayout;fixedRows=1;rowLines=0;fontStyle=0;strokeColor=default;fontSize=16;movable=1;resizable=1;rotatable=1;deletable=1;editable=1;locked=0;connectable=1;" vertex="1" parent="WIyWlLk6GJQsqaUBKTNV-1">
          <mxGeometry x="407.5" y="460" width="180" height="60" as="geometry" />
        </mxCell>
        <mxCell id="2eSCGHU8sKg38de3WhYU-165" value="" style="shape=tableRow;horizontal=0;startSize=0;swimlaneHead=0;swimlaneBody=0;top=0;left=0;bottom=0;right=0;collapsible=0;dropTarget=0;fillColor=none;points=[[0,0.5],[1,0.5]];portConstraint=eastwest;strokeColor=inherit;fontSize=16;" vertex="1" parent="2eSCGHU8sKg38de3WhYU-164">
          <mxGeometry y="30" width="180" height="30" as="geometry" />
        </mxCell>
        <mxCell id="2eSCGHU8sKg38de3WhYU-166" value="Valid" style="shape=partialRectangle;html=1;whiteSpace=wrap;connectable=0;fillColor=none;top=0;left=0;bottom=0;right=0;overflow=hidden;pointerEvents=1;strokeColor=inherit;fontSize=16;" vertex="1" parent="2eSCGHU8sKg38de3WhYU-165">
          <mxGeometry width="60" height="30" as="geometry">
            <mxRectangle width="60" height="30" as="alternateBounds" />
          </mxGeometry>
        </mxCell>
        <mxCell id="2eSCGHU8sKg38de3WhYU-167" value="&lt;span style=&quot;font-size: 12px;&quot;&gt;Instruction Values&lt;/span&gt;" style="shape=partialRectangle;html=1;whiteSpace=wrap;connectable=0;fillColor=none;top=0;left=0;bottom=0;right=0;align=left;spacingLeft=6;overflow=hidden;strokeColor=inherit;fontSize=16;" vertex="1" parent="2eSCGHU8sKg38de3WhYU-165">
          <mxGeometry x="60" width="120" height="30" as="geometry">
            <mxRectangle width="120" height="30" as="alternateBounds" />
          </mxGeometry>
        </mxCell>
        <mxCell id="2eSCGHU8sKg38de3WhYU-168" value="Instr Val" style="text;html=1;align=center;verticalAlign=middle;whiteSpace=wrap;rounded=0;" vertex="1" parent="WIyWlLk6GJQsqaUBKTNV-1">
          <mxGeometry x="480" y="520" width="90" height="30" as="geometry" />
        </mxCell>
        <mxCell id="2eSCGHU8sKg38de3WhYU-170" value="Address" style="text;html=1;align=center;verticalAlign=middle;whiteSpace=wrap;rounded=0;" vertex="1" parent="WIyWlLk6GJQsqaUBKTNV-1">
          <mxGeometry x="320" y="550" width="60" height="30" as="geometry" />
        </mxCell>
        <mxCell id="2eSCGHU8sKg38de3WhYU-171" value="Store Data" style="text;html=1;align=center;verticalAlign=middle;whiteSpace=wrap;rounded=0;" vertex="1" parent="WIyWlLk6GJQsqaUBKTNV-1">
          <mxGeometry x="231" y="369" width="110" height="30" as="geometry" />
        </mxCell>
        <mxCell id="2eSCGHU8sKg38de3WhYU-175" value="Load Buffer" style="shape=table;startSize=30;container=1;collapsible=0;childLayout=tableLayout;fixedRows=1;rowLines=0;fontStyle=0;strokeColor=default;fontSize=16;movable=1;resizable=1;rotatable=1;deletable=1;editable=1;locked=0;connectable=1;" vertex="1" parent="WIyWlLk6GJQsqaUBKTNV-1">
          <mxGeometry x="220" y="750" width="243" height="60" as="geometry" />
        </mxCell>
        <mxCell id="2eSCGHU8sKg38de3WhYU-176" value="" style="shape=tableRow;horizontal=0;startSize=0;swimlaneHead=0;swimlaneBody=0;top=0;left=0;bottom=0;right=0;collapsible=0;dropTarget=0;fillColor=none;points=[[0,0.5],[1,0.5]];portConstraint=eastwest;strokeColor=inherit;fontSize=16;" vertex="1" parent="2eSCGHU8sKg38de3WhYU-175">
          <mxGeometry y="30" width="243" height="30" as="geometry" />
        </mxCell>
        <mxCell id="2eSCGHU8sKg38de3WhYU-177" value="Valid" style="shape=partialRectangle;html=1;whiteSpace=wrap;connectable=0;fillColor=none;top=0;left=0;bottom=0;right=0;overflow=hidden;pointerEvents=1;strokeColor=inherit;fontSize=16;" vertex="1" parent="2eSCGHU8sKg38de3WhYU-176">
          <mxGeometry width="40" height="30" as="geometry">
            <mxRectangle width="40" height="30" as="alternateBounds" />
          </mxGeometry>
        </mxCell>
        <mxCell id="2eSCGHU8sKg38de3WhYU-178" value="Address" style="shape=partialRectangle;html=1;whiteSpace=wrap;connectable=0;fillColor=none;top=0;left=0;bottom=0;right=0;overflow=hidden;pointerEvents=1;strokeColor=inherit;fontSize=16;" vertex="1" parent="2eSCGHU8sKg38de3WhYU-176">
          <mxGeometry x="40" width="73" height="30" as="geometry">
            <mxRectangle width="73" height="30" as="alternateBounds" />
          </mxGeometry>
        </mxCell>
        <mxCell id="2eSCGHU8sKg38de3WhYU-180" value="Done" style="shape=partialRectangle;html=1;whiteSpace=wrap;connectable=0;fillColor=none;top=0;left=0;bottom=0;right=0;align=left;spacingLeft=6;overflow=hidden;strokeColor=inherit;fontSize=16;" vertex="1" parent="2eSCGHU8sKg38de3WhYU-176">
          <mxGeometry x="113" width="50" height="30" as="geometry">
            <mxRectangle width="50" height="30" as="alternateBounds" />
          </mxGeometry>
        </mxCell>
        <mxCell id="2eSCGHU8sKg38de3WhYU-181" value="ROB Idx" style="shape=partialRectangle;html=1;whiteSpace=wrap;connectable=0;fillColor=none;top=0;left=0;bottom=0;right=0;align=left;spacingLeft=6;overflow=hidden;strokeColor=inherit;fontSize=16;" vertex="1" parent="2eSCGHU8sKg38de3WhYU-176">
          <mxGeometry x="163" width="80" height="30" as="geometry">
            <mxRectangle width="80" height="30" as="alternateBounds" />
          </mxGeometry>
        </mxCell>
        <mxCell id="2eSCGHU8sKg38de3WhYU-182" value="Updated value for destination reg" style="text;html=1;align=center;verticalAlign=middle;whiteSpace=wrap;rounded=0;" vertex="1" parent="WIyWlLk6GJQsqaUBKTNV-1">
          <mxGeometry x="660" y="880" width="370" height="30" as="geometry" />
        </mxCell>
        <mxCell id="2eSCGHU8sKg38de3WhYU-183" style="edgeStyle=orthogonalEdgeStyle;rounded=0;orthogonalLoop=1;jettySize=auto;html=1;exitX=0.75;exitY=1;exitDx=0;exitDy=0;" edge="1" parent="WIyWlLk6GJQsqaUBKTNV-1" source="2eSCGHU8sKg38de3WhYU-151">
          <mxGeometry relative="1" as="geometry">
            <mxPoint x="390" y="900" as="sourcePoint" />
            <mxPoint x="470" y="910" as="targetPoint" />
            <Array as="points">
              <mxPoint x="313" y="990" />
              <mxPoint x="470" y="990" />
            </Array>
          </mxGeometry>
        </mxCell>
        <mxCell id="2eSCGHU8sKg38de3WhYU-184" value="Load&lt;br&gt;Addr" style="text;html=1;align=center;verticalAlign=middle;whiteSpace=wrap;rounded=0;" vertex="1" parent="WIyWlLk6GJQsqaUBKTNV-1">
          <mxGeometry x="245" y="850" width="60" height="30" as="geometry" />
        </mxCell>
        <mxCell id="2eSCGHU8sKg38de3WhYU-185" value="Done bit" style="text;html=1;align=center;verticalAlign=middle;whiteSpace=wrap;rounded=0;" vertex="1" parent="WIyWlLk6GJQsqaUBKTNV-1">
          <mxGeometry x="356" y="920" width="60" height="30" as="geometry" />
        </mxCell>
        <mxCell id="2eSCGHU8sKg38de3WhYU-186" value="Loaded&lt;br&gt;Data" style="text;html=1;align=center;verticalAlign=middle;whiteSpace=wrap;rounded=0;" vertex="1" parent="WIyWlLk6GJQsqaUBKTNV-1">
          <mxGeometry x="474" y="920" width="60" height="30" as="geometry" />
        </mxCell>
        <mxCell id="2eSCGHU8sKg38de3WhYU-187" value="Store&lt;br&gt;Addr" style="text;html=1;align=center;verticalAlign=middle;whiteSpace=wrap;rounded=0;" vertex="1" parent="WIyWlLk6GJQsqaUBKTNV-1">
          <mxGeometry x="188" y="900" width="60" height="30" as="geometry" />
        </mxCell>
        <mxCell id="2eSCGHU8sKg38de3WhYU-188" style="edgeStyle=orthogonalEdgeStyle;rounded=0;orthogonalLoop=1;jettySize=auto;html=1;exitX=0.858;exitY=1.032;exitDx=0;exitDy=0;exitPerimeter=0;" edge="1" parent="WIyWlLk6GJQsqaUBKTNV-1" source="2eSCGHU8sKg38de3WhYU-88">
          <mxGeometry relative="1" as="geometry">
            <mxPoint x="802" y="820" as="sourcePoint" />
            <mxPoint x="780" y="880" as="targetPoint" />
            <Array as="points">
              <mxPoint x="780" y="734" />
              <mxPoint x="780" y="734" />
            </Array>
          </mxGeometry>
        </mxCell>
        <mxCell id="2eSCGHU8sKg38de3WhYU-189" style="edgeStyle=orthogonalEdgeStyle;rounded=0;orthogonalLoop=1;jettySize=auto;html=1;exitX=0.858;exitY=1.032;exitDx=0;exitDy=0;exitPerimeter=0;" edge="1" parent="WIyWlLk6GJQsqaUBKTNV-1">
          <mxGeometry relative="1" as="geometry">
            <mxPoint x="1160" y="730" as="sourcePoint" />
            <mxPoint x="1160" y="879" as="targetPoint" />
            <Array as="points">
              <mxPoint x="1160" y="733" />
              <mxPoint x="1160" y="733" />
            </Array>
          </mxGeometry>
        </mxCell>
        <mxCell id="2eSCGHU8sKg38de3WhYU-190" style="edgeStyle=orthogonalEdgeStyle;rounded=0;orthogonalLoop=1;jettySize=auto;html=1;" edge="1" parent="WIyWlLk6GJQsqaUBKTNV-1" source="2eSCGHU8sKg38de3WhYU-176">
          <mxGeometry relative="1" as="geometry">
            <mxPoint x="550" y="890" as="targetPoint" />
          </mxGeometry>
        </mxCell>
        <mxCell id="2eSCGHU8sKg38de3WhYU-192" value="Instr Data" style="text;html=1;align=center;verticalAlign=middle;whiteSpace=wrap;rounded=0;" vertex="1" parent="WIyWlLk6GJQsqaUBKTNV-1">
          <mxGeometry x="393" y="260" width="60" height="30" as="geometry" />
        </mxCell>
        <mxCell id="2eSCGHU8sKg38de3WhYU-197" style="edgeStyle=orthogonalEdgeStyle;rounded=0;orthogonalLoop=1;jettySize=auto;html=1;entryX=0;entryY=0.5;entryDx=0;entryDy=0;" edge="1" parent="WIyWlLk6GJQsqaUBKTNV-1" source="2eSCGHU8sKg38de3WhYU-194" target="2eSCGHU8sKg38de3WhYU-148">
          <mxGeometry relative="1" as="geometry">
            <Array as="points">
              <mxPoint x="200" y="285" />
            </Array>
          </mxGeometry>
        </mxCell>
        <mxCell id="2eSCGHU8sKg38de3WhYU-194" value="PC" style="rounded=0;whiteSpace=wrap;html=1;" vertex="1" parent="WIyWlLk6GJQsqaUBKTNV-1">
          <mxGeometry x="100" y="350" width="110" height="30" as="geometry" />
        </mxCell>
        <mxCell id="2eSCGHU8sKg38de3WhYU-199" value="PC+4" style="text;html=1;align=center;verticalAlign=middle;whiteSpace=wrap;rounded=0;" vertex="1" parent="WIyWlLk6GJQsqaUBKTNV-1">
          <mxGeometry x="160" y="410" width="60" height="30" as="geometry" />
        </mxCell>
        <mxCell id="2eSCGHU8sKg38de3WhYU-200" value="Instr Type &amp;amp; RD Idx" style="text;html=1;align=center;verticalAlign=middle;whiteSpace=wrap;rounded=0;" vertex="1" parent="WIyWlLk6GJQsqaUBKTNV-1">
          <mxGeometry x="493" y="287" width="130" height="30" as="geometry" />
        </mxCell>
        <mxCell id="2eSCGHU8sKg38de3WhYU-201" value="Instr Type, Rs1, Offset" style="text;html=1;align=center;verticalAlign=middle;whiteSpace=wrap;rounded=0;" vertex="1" parent="WIyWlLk6GJQsqaUBKTNV-1">
          <mxGeometry x="755" y="570" width="130" height="30" as="geometry" />
        </mxCell>
        <mxCell id="2eSCGHU8sKg38de3WhYU-202" value="Instr Type, Rs1, Rs2" style="text;html=1;align=center;verticalAlign=middle;whiteSpace=wrap;rounded=0;" vertex="1" parent="WIyWlLk6GJQsqaUBKTNV-1">
          <mxGeometry x="493" y="623" width="130" height="30" as="geometry" />
        </mxCell>
        <mxCell id="2eSCGHU8sKg38de3WhYU-204" value="Instr Type, Rs1, Rs2" style="text;html=1;align=center;verticalAlign=middle;whiteSpace=wrap;rounded=0;" vertex="1" parent="WIyWlLk6GJQsqaUBKTNV-1">
          <mxGeometry x="625" y="750" width="130" height="30" as="geometry" />
        </mxCell>
        <mxCell id="2eSCGHU8sKg38de3WhYU-205" value="Instr Type, Rs1, Offset" style="text;html=1;align=center;verticalAlign=middle;whiteSpace=wrap;rounded=0;" vertex="1" parent="WIyWlLk6GJQsqaUBKTNV-1">
          <mxGeometry x="885" y="740" width="130" height="30" as="geometry" />
        </mxCell>
        <mxCell id="2eSCGHU8sKg38de3WhYU-206" value="Reg Vals" style="text;html=1;align=center;verticalAlign=middle;whiteSpace=wrap;rounded=0;" vertex="1" parent="WIyWlLk6GJQsqaUBKTNV-1">
          <mxGeometry x="892" y="510" width="60" height="30" as="geometry" />
        </mxCell>
        <mxCell id="2eSCGHU8sKg38de3WhYU-207" value="Reg Vals" style="text;html=1;align=center;verticalAlign=middle;whiteSpace=wrap;rounded=0;" vertex="1" parent="WIyWlLk6GJQsqaUBKTNV-1">
          <mxGeometry x="600" y="500" width="60" height="30" as="geometry" />
        </mxCell>
        <mxCell id="2eSCGHU8sKg38de3WhYU-208" value="Instr Data" style="text;html=1;align=center;verticalAlign=middle;whiteSpace=wrap;rounded=0;" vertex="1" parent="WIyWlLk6GJQsqaUBKTNV-1">
          <mxGeometry x="507.5" y="430" width="60" height="30" as="geometry" />
        </mxCell>
      </root>
    </mxGraphModel>
  </diagram>
</mxfile>
